<?xml version="1.0" encoding="UTF-8" standalone="no"?>
<!-- Created with Inkscape (http://www.inkscape.org/) -->

<svg
   xmlns:dc="http://purl.org/dc/elements/1.1/"
   xmlns:cc="http://creativecommons.org/ns#"
   xmlns:rdf="http://www.w3.org/1999/02/22-rdf-syntax-ns#"
   xmlns:svg="http://www.w3.org/2000/svg"
   xmlns="http://www.w3.org/2000/svg"
   xmlns:sodipodi="http://sodipodi.sourceforge.net/DTD/sodipodi-0.dtd"
   xmlns:inkscape="http://www.inkscape.org/namespaces/inkscape"
   width="1024"
   height="250"
   id="svg3583"
   version="1.1"
   inkscape:version="0.48.3.1 r9886"
   sodipodi:docname="New document 4">
  <defs
     id="defs3585">
    <clipPath
       clipPathUnits="userSpaceOnUse"
       id="clipPath3047">
      <path
         inkscape:connector-curvature="0"
         d="m 407.877,809.291 -88.98,0 0,-21.729 88.98,0 0,21.729 z"
         id="path3049" />
    </clipPath>
    <clipPath
       clipPathUnits="userSpaceOnUse"
       id="clipPath3031">
      <path
         inkscape:connector-curvature="0"
         d="m 407.877,809.291 -88.98,0 0,-21.729 88.98,0 0,21.729 z"
         id="path3033" />
    </clipPath>
  </defs>
  <sodipodi:namedview
     id="base"
     pagecolor="#ffffff"
     bordercolor="#666666"
     borderopacity="1.0"
     inkscape:pageopacity="0.0"
     inkscape:pageshadow="2"
     inkscape:zoom="0.5"
     inkscape:cx="512"
     inkscape:cy="382"
     inkscape:current-layer="layer1"
     inkscape:document-units="px"
     showgrid="false"
     inkscape:window-width="1023"
     inkscape:window-height="640"
     inkscape:window-x="75"
     inkscape:window-y="75"
     inkscape:window-maximized="0" />
  <metadata
     id="metadata3588">
    <rdf:RDF>
      <cc:Work
         rdf:about="">
        <dc:format>image/svg+xml</dc:format>
        <dc:type
           rdf:resource="http://purl.org/dc/dcmitype/StillImage" />
        <dc:title></dc:title>
      </cc:Work>
    </rdf:RDF>
  </metadata>
  <g
     id="layer1"
     inkscape:label="Layer 1"
     inkscape:groupmode="layer"
     transform="translate(0,-518)">
    <g
       transform="matrix(11.319727,0,0,-10.086136,-3601.4393,8705.0386)"
       id="g3027">
      <g
         id="g3029"
         clip-path="url(#clipPath3031)">
        <g
           id="g3035"
           transform="translate(359.604,794.374)">
          <path
             inkscape:connector-curvature="0"
             d="m 0,0 c -1.438,-2.905 -4.862,-3.337 -7.911,-3.135 -2.1,0.143 -4.171,0.978 -5.149,2.79 -1.582,2.502 -1.525,6.559 0.029,8.917 1.985,2.848 5.724,2.906 8.917,2.388 1.525,-0.316 3.021,-1.064 3.855,-2.445 C 1.179,6.242 1.237,2.445 0,0 z m 3.279,9.838 c -0.978,1.669 -2.761,3.193 -4.602,3.941 -4.546,1.64 -10.788,1.467 -14.096,-2.416 -2.905,-3.078 -2.991,-8.429 -1.496,-12.399 1.698,-3.423 5.006,-5.407 8.717,-5.695 4.43,-0.432 8.773,0.834 11.132,4.545 2.129,3.308 2.071,8.687 0.345,12.024"
             style="fill:#e10886;fill-opacity:1;fill-rule:nonzero;stroke:none"
             id="path3037" />
        </g>
      </g>
    </g>
    <g
       id="g3039"
       transform="matrix(11.319727,0,0,-10.086136,291.83387,549.4285)">
      <path
         inkscape:connector-curvature="0"
         d="M 0,0 -10.251,-20.493 -14.624,-20.522 -25.04,0 l 4.144,0 8.43,-16.581 L -4.083,0 0,0"
         style="fill:#e10886;fill-opacity:1;fill-rule:nonzero;stroke:none"
         id="path3041" />
    </g>
    <g
       transform="matrix(11.319727,0,0,-10.086136,-3601.4393,8705.0386)"
       id="g3043">
      <g
         id="g3045"
         clip-path="url(#clipPath3047)">
        <g
           id="g3051"
           transform="translate(384.516,805.679)">
          <path
             inkscape:connector-curvature="0"
             d="m 0,0 c 0.547,-0.892 0.892,-1.87 0.863,-2.963 -1.41,-0.086 -2.675,-0.029 -4.113,-0.029 -0.115,1.065 -0.748,2.043 -1.841,2.359 -2.992,0.921 -6.904,1.036 -9.695,-0.374 -0.517,-0.403 -0.949,-0.978 -0.892,-1.697 -0.086,-0.719 0.49,-1.295 1.094,-1.611 3.423,-1.064 7.335,-0.892 10.873,-1.64 2.072,-0.431 4.286,-1.956 4.862,-4.113 0.662,-2.56 -0.345,-4.746 -2.273,-6.214 -3.365,-2.1 -8.198,-1.841 -12.254,-1.352 -2.56,0.346 -4.833,1.669 -6.156,4.028 -0.403,0.805 -0.662,1.841 -0.662,2.905 l 3.855,-0.023 c 0.23,-1.237 0.834,-2.365 2.071,-2.882 3.165,-1.122 7.422,-1.093 10.528,0.086 0.72,0.431 1.238,1.151 1.151,2.014 -0.115,0.834 -0.834,1.524 -1.582,1.812 -3.797,1.179 -8.227,0.805 -11.966,2.1 -1.554,0.633 -2.992,2.1 -3.165,3.797 -0.115,0.115 -0.029,0.316 -0.086,0.46 -0.201,2.186 0.834,4.344 2.79,5.494 3.049,1.583 7.105,1.525 10.644,1.036 C -3.711,2.762 -1.323,2.014 0,0"
             style="fill:#e10886;fill-opacity:1;fill-rule:nonzero;stroke:none"
             id="path3053" />
        </g>
        <g
           id="g3055"
           transform="translate(407.068,804.615)">
          <path
             inkscape:connector-curvature="0"
             d="m 0,0 c 0.173,-0.575 0.288,-1.179 0.288,-1.784 l -4.143,-0.028 c 0,0.748 -0.402,1.409 -0.949,1.898 -2.042,1.18 -4.689,1.208 -7.162,1.036 -1.496,-0.317 -3.28,-0.374 -4.114,-1.784 -0.316,-0.632 -0.201,-1.524 0.201,-1.984 1.295,-1.065 3.136,-0.979 4.776,-1.324 4.286,-0.633 9.953,-0.086 11.679,-4.89 0.632,-2.042 -0.087,-4.056 -1.41,-5.494 -2.733,-2.704 -6.961,-2.388 -10.787,-2.388 -3.337,0.173 -6.761,1.065 -8.429,4.171 -0.489,0.835 -0.741,1.944 -0.769,3.065 1.327,-0.017 2.697,0.013 3.934,-0.016 0.086,-1.208 0.748,-2.272 1.869,-2.847 2.934,-1.209 6.875,-1.065 9.953,-0.317 0.806,0.173 1.726,0.863 1.899,1.697 0.201,0.863 -0.259,1.611 -0.892,2.072 -1.553,0.891 -3.452,0.977 -5.293,1.236 -2.675,0.23 -5.293,0.461 -7.68,1.381 -1.956,0.834 -3.107,2.906 -3.021,4.977 0.058,2.215 1.64,4.257 3.625,5.063 3.135,1.093 7.134,1.179 10.499,0.517 C -3.48,3.711 -0.949,2.531 0,0"
             style="fill:#e10886;fill-opacity:1;fill-rule:nonzero;stroke:none"
             id="path3057" />
        </g>
      </g>
    </g>
  </g>
</svg>
